<?xml version="1.0" encoding="UTF-8"?>
<svg id="Layer_1" xmlns="http://www.w3.org/2000/svg" version="1.1" viewBox="0 0 1513.39 464.65">
  <!-- Generator: Adobe Illustrator 29.2.1, SVG Export Plug-In . SVG Version: 2.1.0 Build 116)  -->
  <defs>
    <style>
      .st0 {
        fill: #879ca8;
      }

      .st1 {
        fill: #687184;
      }

      .st2 {
        fill: #f8efe2;
      }

      .st3 {
        fill: #ff5f00;
      }

      .st4 {
        fill: #3e4c65;
      }
    </style>
  </defs>
  <g>
    <polygon class="st2" points="382.9 312.78 369.06 312.78 369.06 168.34 333.9 168.34 333.9 312.78 320.06 312.78 320.06 10.08 333.9 10.08 333.9 155.37 369.06 155.37 369.06 10.08 382.9 10.08 382.9 312.78"/>
    <rect class="st2" x="452.08" y="10.08" width="13.83" height="302.7"/>
    <polygon class="st2" points="548.5 10.08 548.5 299.8 598.93 299.8 598.93 312.78 534.67 312.78 534.67 10.08 548.5 10.08"/>
    <polygon class="st2" points="647.96 10.08 647.96 299.8 698.38 299.8 698.38 312.78 634.12 312.78 634.12 10.08 647.96 10.08"/>
    <path class="st2" d="M875.39,153.21v159.56h-13.84v-13.84h-.86c-2.59,10.38-9.51,16.43-18.59,16.43-13.4,0-22.05-11.67-22.05-30.27V37.75c0-19.03,10.81-30.27,27.68-30.27s27.67,11.24,27.67,30.27v86.92h-13.84V39.05c0-13.41-6.05-18.59-13.83-18.59-7.36,0-13.84,5.19-13.84,18.59v244.75c0,13.4,6.48,18.59,13.84,18.59,7.78,0,13.83-5.19,13.83-19.03v-117.19h-12.54v-12.97h26.38Z"/>
    <path class="st2" d="M971.82,165.75h-13.84v147.03h-13.84V10.08h28.11c17.3,0,27.24,10.81,27.24,30.26v94.28c0,12.54-3.46,20.32-11.67,24.65v.86c8.21,4.33,11.67,11.68,11.67,24.65v94.71c0,12.11.43,20.75,3.46,32.86v.43h-13.83c-3.03-12.11-3.46-20.75-3.46-33.73v-95.13c0-10.81-3.46-18.16-13.83-18.16M971.82,23.05h-13.84v129.73h13.84c8.21,0,13.83-4.33,13.83-17.73V41.21c0-13.41-5.62-18.16-13.83-18.16"/>
    <path class="st2" d="M1123.6,285.1c0,18.59-10.82,30.27-27.25,30.27s-28.1-11.67-28.1-30.27V37.75c0-18.59,11.23-30.27,27.67-30.27s27.68,11.67,27.68,30.27v247.35ZM1095.92,20.45c-7.35,0-13.84,5.19-13.84,18.59v244.75c0,13.41,6.49,18.59,13.84,18.59,7.79,0,13.84-5.19,13.84-18.59V39.05c0-13.4-6.05-18.59-13.84-18.59"/>
    <path class="st2" d="M1247.7,285.1c0,18.59-10.82,30.27-27.25,30.27s-28.1-11.67-28.1-30.27V37.75c0-18.59,11.24-30.27,27.67-30.27s27.68,11.67,27.68,30.27v247.35ZM1220.02,20.45c-7.35,0-13.84,5.19-13.84,18.59v244.75c0,13.41,6.49,18.59,13.84,18.59,7.79,0,13.84-5.19,13.84-18.59V39.05c0-13.4-6.05-18.59-13.84-18.59"/>
    <polygon class="st2" points="1350.61 312.78 1329.84 312.78 1309.96 10.08 1324.23 10.08 1335.91 208.56 1339.79 294.18 1340.66 294.18 1344.55 208.56 1356.23 10.08 1369.64 10.08 1350.61 312.78"/>
    <polygon class="st2" points="1506 23.05 1446.17 23.05 1446.17 151.05 1501.91 151.05 1501.91 164.02 1446.17 164.02 1446.17 299.81 1506.23 299.81 1506.23 312.78 1432.33 312.78 1432.33 10.08 1506 10.08 1506 23.05"/>
    <path class="st2" d="M319.3,426.85c0-17.21,13.28-30.32,30.32-30.32,7.19,0,13.7,2.26,18.8,6.43l-2.84,4.18c-4.18-3.51-9.6-5.68-15.96-5.68-14.28,0-24.97,11.03-24.97,25.39s10.69,25.39,24.97,25.39c6.35,0,11.78-2.17,16.04-5.68l2.76,4.18c-5.01,4.09-11.61,6.43-18.8,6.43-17.04,0-30.32-13.11-30.32-30.32"/>
    <path class="st2" d="M407.16,426.85c0-17.21,13.29-30.32,30.32-30.32s30.32,13.11,30.32,30.32-13.28,30.32-30.32,30.32-30.32-13.11-30.32-30.32M462.46,426.85c0-14.37-10.69-25.39-24.98-25.39s-24.98,11.03-24.98,25.39,10.69,25.39,24.98,25.39,24.98-11.03,24.98-25.39"/>
    <polygon class="st2" points="513.72 397.19 545.79 397.19 545.79 402.12 518.89 402.12 518.89 423.42 539.95 423.42 539.95 428.44 518.89 428.44 518.89 456.5 513.72 456.5 513.72 397.19"/>
    <polygon class="st2" points="588.96 397.19 621.04 397.19 621.04 402.12 594.14 402.12 594.14 423.42 615.19 423.42 615.19 428.44 594.14 428.44 594.14 456.5 588.96 456.5 588.96 397.19"/>
    <polygon class="st2" points="664.2 397.19 697.45 397.19 697.45 402.12 669.38 402.12 669.38 423.42 692.44 423.42 692.44 428.44 669.38 428.44 669.38 451.58 697.45 451.58 697.45 456.5 664.2 456.5 664.2 397.19"/>
    <polygon class="st2" points="744.45 397.19 777.7 397.19 777.7 402.12 749.63 402.12 749.63 423.42 772.69 423.42 772.69 428.44 749.63 428.44 749.63 451.58 777.7 451.58 777.7 456.5 744.45 456.5 744.45 397.19"/>
    <path class="st2" d="M892.94,429.69h-7.68v26.81h-5.18v-59.31h15.7c12.2,0,19.3,6.1,19.3,16.29,0,9.11-5.94,15.12-16.12,16.12l22.47,26.89h-6.44l-22.05-26.81ZM895.61,424.93c9.44,0,14.03-4.18,14.03-11.44s-4.6-11.44-14.03-11.44h-10.36v22.89h10.36Z"/>
    <path class="st2" d="M956.91,426.85c0-17.21,13.28-30.32,30.32-30.32s30.32,13.11,30.32,30.32-13.28,30.32-30.32,30.32-30.32-13.11-30.32-30.32M1012.2,426.85c0-14.37-10.69-25.39-24.98-25.39s-24.98,11.03-24.98,25.39,10.7,25.39,24.98,25.39,24.98-11.03,24.98-25.39"/>
    <path class="st2" d="M1080.6,396.52l28.65,59.98h-5.43l-8.68-18.12h-29.07l-8.6,18.12h-5.43l28.57-59.98ZM1068.4,433.45h24.39l-12.19-25.64-12.2,25.64Z"/>
    <path class="st2" d="M1146.39,448.9l3.93-3.59c2.92,3.59,8.01,6.94,14.44,6.94,8.1,0,13.53-4.01,13.53-10.19,0-6.6-4.09-9.69-10.86-12.7l-6.27-2.68c-9.02-3.84-12.61-9.02-12.61-16.2,0-8.44,8.35-13.95,16.87-13.95,7.01,0,12.86,3.18,16.54,7.52l-3.84,3.59c-3.09-3.68-6.85-6.19-12.95-6.19s-11.44,3.51-11.44,9.36c0,4.93,2.42,8.27,9.18,11.11l6.27,2.67c8.02,3.42,14.37,8.19,14.37,16.71,0,9.11-6.93,15.87-18.8,15.87-8.18,0-15.03-4.26-18.37-8.27"/>
    <polygon class="st2" points="1239.26 402.12 1222.47 402.12 1222.47 397.19 1261.31 397.19 1261.31 402.12 1244.44 402.12 1244.44 456.5 1239.26 456.5 1239.26 402.12"/>
    <polygon class="st2" points="1305.48 397.19 1338.73 397.19 1338.73 402.12 1310.66 402.12 1310.66 423.42 1333.72 423.42 1333.72 428.44 1310.66 428.44 1310.66 451.58 1338.73 451.58 1338.73 456.5 1305.48 456.5 1305.48 397.19"/>
    <path class="st2" d="M1398.6,429.69h-7.68v26.81h-5.18v-59.31h15.7c12.2,0,19.29,6.1,19.29,16.29,0,9.11-5.93,15.12-16.12,16.12l22.47,26.89h-6.43l-22.05-26.81ZM1401.27,424.93c9.44,0,14.04-4.18,14.04-11.44s-4.6-11.44-14.04-11.44h-10.36v22.89h10.36Z"/>
    <path class="st2" d="M1465.99,448.9l3.92-3.59c2.92,3.59,8.02,6.94,14.45,6.94,8.1,0,13.53-4.01,13.53-10.19,0-6.6-4.09-9.69-10.86-12.7l-6.27-2.68c-9.02-3.84-12.61-9.02-12.61-16.2,0-8.44,8.35-13.95,16.87-13.95,7.01,0,12.86,3.18,16.54,7.52l-3.84,3.59c-3.09-3.68-6.85-6.19-12.95-6.19s-11.44,3.51-11.44,9.36c0,4.93,2.42,8.27,9.18,11.11l6.27,2.67c8.02,3.42,14.37,8.19,14.37,16.71,0,9.11-6.93,15.87-18.8,15.87-8.18,0-15.03-4.26-18.37-8.27"/>
  </g>
  <g>
    <path class="st2" d="M217.79,456.63H12.62c-3.02,0-5.46-2.45-5.46-5.46v-95.08c0-3.02,2.45-5.46,5.46-5.46h205.17c3.02,0,5.46,2.45,5.46,5.46v95.08c0,3.02-2.45,5.46-5.46,5.46"/>
    <path class="st2" d="M115.21,8.02h0C55.53,8.02,7.16,56.4,7.16,116.08v174.95c0,59.68,48.37,108.04,108.05,108.04s108.05-48.37,108.05-108.04V116.08c0-59.68-48.37-108.05-108.05-108.05"/>
    <path class="st1" d="M132.49,237.67c-1.59-.1-4.42-.31-6-.54-29.46-4.24-57-14.82-84.41-25.73-11.42-4.55-22.28-9.16-34.92-8.59v82.51h128.53l-3.21-47.65Z"/>
    <path class="st3" d="M75.46,108.9c.03-21.88,17.63-39.44,39.5-39.41,21.71.03,39.1,17.81,39.04,39.91-.06,21.27-17.86,38.93-39.2,38.87-21.88-.04-39.38-17.56-39.35-39.38"/>
    <path class="st4" d="M223.26,307.5H7.17v-25.02c22.58-5.09,46.36-4.01,69.21-5.55,10.91-.74,18.71-8.61,26.7-15.22,9.8-8.1,18.89-17.05,29.51-24.17,13.95-9.74,29.21-15.27,46.49-15.37,14.15-.09,26.58-5.79,38.32-13.12,1.6-1.01,4.24-1.96,5.86-2.94"/>
    <path class="st0" d="M19.67,456.27l203.58-94.11v-56.34H7.16v147.04c0,2.08,1.69,3.76,3.76,3.76h7.16c.54,0,1.08-.11,1.57-.34"/>
  </g>
</svg>