<?xml version="1.0" encoding="UTF-8"?>
<svg id="Layer_1" xmlns="http://www.w3.org/2000/svg" version="1.1" viewBox="0 0 1075.32 351.54">
  <!-- Generator: Adobe Illustrator 29.6.1, SVG Export Plug-In . SVG Version: 2.1.1 Build 9)  -->
  <defs>
    <style>
      .st0 {
        fill: #879ca8;
      }

      .st1 {
        fill: #687184;
      }

      .st2 {
        fill: #f8efe2;
      }

      .st3 {
        fill: #ff5f00;
      }

      .st4 {
        fill: #3e4c65;
      }
    </style>
  </defs>
  <g>
    <polygon class="st4" points="273.58 232.52 263.81 232.52 263.81 130.61 239.01 130.61 239.01 232.52 229.24 232.52 229.24 18.94 239.01 18.94 239.01 121.46 263.81 121.46 263.81 18.94 273.58 18.94 273.58 232.52"/>
    <rect class="st4" x="322.39" y="18.94" width="9.76" height="213.58"/>
    <polygon class="st4" points="390.42 18.94 390.42 223.37 426 223.37 426 232.52 380.66 232.52 380.66 18.94 390.42 18.94"/>
    <polygon class="st4" points="460.6 18.94 460.6 223.37 496.17 223.37 496.17 232.52 450.83 232.52 450.83 18.94 460.6 18.94"/>
    <path class="st4" d="M621.07,119.94v112.58h-9.76v-9.76h-.61c-1.83,7.32-6.71,11.6-13.12,11.6-9.45,0-15.56-8.24-15.56-21.36V38.48c0-13.43,7.63-21.36,19.53-21.36s19.53,7.93,19.53,21.36v61.33h-9.76v-60.41c0-9.46-4.27-13.12-9.76-13.12-5.19,0-9.76,3.66-9.76,13.12v172.69c0,9.45,4.57,13.12,9.76,13.12,5.49,0,9.76-3.66,9.76-13.43v-82.69h-8.85v-9.15h18.61-.01Z"/>
    <path class="st4" d="M689.11,128.78h-9.76v103.74h-9.76V18.95h19.84c12.21,0,19.22,7.62,19.22,21.35v66.52c0,8.85-2.44,14.34-8.23,17.39v.61c5.79,3.05,8.23,8.24,8.23,17.39v66.82c0,8.54.3,14.65,2.44,23.19v.3h-9.76c-2.14-8.54-2.44-14.64-2.44-23.8v-67.13c0-7.62-2.44-12.81-9.76-12.81M689.11,28.1h-9.76v91.53h9.76c5.79,0,9.76-3.05,9.76-12.51V40.91c0-9.46-3.97-12.81-9.76-12.81"/>
    <path class="st4" d="M796.2,213c0,13.12-7.63,21.36-19.22,21.36s-19.83-8.24-19.83-21.36V38.48c0-13.12,7.93-21.36,19.53-21.36s19.53,8.24,19.53,21.36v174.52h-.01ZM776.67,26.27c-5.18,0-9.76,3.66-9.76,13.12v172.69c0,9.46,4.58,13.12,9.76,13.12,5.5,0,9.76-3.66,9.76-13.12V39.39c0-9.45-4.27-13.12-9.76-13.12"/>
    <path class="st4" d="M883.76,213c0,13.12-7.63,21.36-19.22,21.36s-19.83-8.24-19.83-21.36V38.48c0-13.12,7.93-21.36,19.53-21.36s19.53,8.24,19.53,21.36v174.52h-.01ZM864.23,26.27c-5.18,0-9.76,3.66-9.76,13.12v172.69c0,9.46,4.58,13.12,9.76,13.12,5.5,0,9.76-3.66,9.76-13.12V39.39c0-9.45-4.27-13.12-9.76-13.12"/>
    <polygon class="st4" points="956.37 232.52 941.72 232.52 927.69 18.94 937.76 18.94 946 158.99 948.74 219.4 949.35 219.4 952.1 158.99 960.34 18.94 969.8 18.94 956.37 232.52"/>
    <polygon class="st4" points="1065.53 28.1 1023.8 28.1 1023.8 118.41 1063.13 118.41 1063.13 127.56 1023.8 127.56 1023.8 223.37 1066.17 223.37 1066.17 232.52 1014.03 232.52 1014.03 18.95 1065.53 18.95 1065.53 28.1"/>
    <path class="st4" d="M228.71,313.01c0-12.14,9.37-21.4,21.4-21.4,5.07,0,9.66,1.59,13.26,4.54l-2.01,2.95c-2.94-2.48-6.77-4.01-11.25-4.01-10.08,0-17.62,7.78-17.62,17.92s7.54,17.92,17.62,17.92c4.48,0,8.31-1.53,11.31-4.01l1.95,2.95c-3.54,2.89-8.19,4.54-13.26,4.54-12.02,0-21.4-9.25-21.4-21.4"/>
    <path class="st4" d="M290.69,313.01c0-12.14,9.37-21.4,21.39-21.4s21.4,9.25,21.4,21.4-9.37,21.4-21.4,21.4-21.39-9.25-21.39-21.4M329.71,313.01c0-10.14-7.54-17.92-17.63-17.92s-17.62,7.78-17.62,17.92,7.54,17.92,17.62,17.92,17.63-7.78,17.63-17.92"/>
    <polygon class="st4" points="365.88 292.09 388.51 292.09 388.51 295.56 369.54 295.56 369.54 310.6 384.39 310.6 384.39 314.13 369.54 314.13 369.54 333.93 365.88 333.93 365.88 292.09"/>
    <polygon class="st4" points="418.97 292.09 441.6 292.09 441.6 295.56 422.63 295.56 422.63 310.6 437.48 310.6 437.48 314.13 422.63 314.13 422.63 333.93 418.97 333.93 418.97 292.09"/>
    <polygon class="st4" points="472.06 292.09 495.51 292.09 495.51 295.56 475.71 295.56 475.71 310.6 491.98 310.6 491.98 314.13 475.71 314.13 475.71 330.45 495.51 330.45 495.51 333.93 472.06 333.93 472.06 292.09"/>
    <polygon class="st4" points="528.68 292.09 552.14 292.09 552.14 295.56 532.34 295.56 532.34 310.6 548.61 310.6 548.61 314.13 532.34 314.13 532.34 330.45 552.14 330.45 552.14 333.93 528.68 333.93 528.68 292.09"/>
    <path class="st4" d="M633.45,315.01h-5.42v18.92h-3.65v-41.84h11.08c8.61,0,13.61,4.3,13.61,11.49,0,6.43-4.19,10.67-11.37,11.38l15.85,18.97h-4.54l-15.56-18.92h0ZM635.34,311.65c6.66,0,9.9-2.95,9.9-8.08s-3.24-8.07-9.9-8.07h-7.31v16.15h7.31Z"/>
    <path class="st4" d="M678.59,313.01c0-12.14,9.37-21.4,21.39-21.4s21.4,9.25,21.4,21.4-9.37,21.4-21.4,21.4-21.39-9.25-21.39-21.4M717.6,313.01c0-10.14-7.54-17.92-17.62-17.92s-17.62,7.78-17.62,17.92,7.54,17.92,17.62,17.92,17.62-7.78,17.62-17.92"/>
    <path class="st4" d="M765.86,291.61l20.22,42.32h-3.83l-6.13-12.79h-20.51l-6.07,12.79h-3.83l20.16-42.32h-.01ZM757.25,317.67h17.21l-8.6-18.09-8.61,18.09h0Z"/>
    <path class="st4" d="M812.28,328.57l2.77-2.53c2.06,2.53,5.65,4.89,10.19,4.89,5.72,0,9.55-2.83,9.55-7.19,0-4.66-2.89-6.84-7.66-8.96l-4.42-1.89c-6.37-2.71-8.9-6.36-8.9-11.43,0-5.95,5.89-9.84,11.9-9.84,4.95,0,9.08,2.24,11.67,5.3l-2.71,2.53c-2.18-2.59-4.83-4.36-9.14-4.36s-8.07,2.48-8.07,6.6c0,3.48,1.71,5.84,6.49,7.84l4.42,1.88c5.66,2.42,10.14,5.78,10.14,11.79,0,6.43-4.89,11.2-13.26,11.2-5.78,0-10.61-3-12.96-5.83"/>
    <polygon class="st4" points="877.81 295.56 865.96 295.56 865.96 292.08 893.37 292.08 893.37 295.56 881.46 295.56 881.46 333.93 877.81 333.93 877.81 295.56"/>
    <polygon class="st4" points="924.53 292.09 947.99 292.09 947.99 295.56 928.19 295.56 928.19 310.6 944.45 310.6 944.45 314.13 928.19 314.13 928.19 330.45 947.99 330.45 947.99 333.93 924.53 333.93 924.53 292.09"/>
    <path class="st4" d="M990.23,315.01h-5.42v18.92h-3.66v-41.84h11.08c8.61,0,13.61,4.3,13.61,11.49,0,6.43-4.18,10.67-11.37,11.38l15.85,18.97h-4.54l-15.56-18.92h.01ZM992.12,311.65c6.66,0,9.9-2.95,9.9-8.08s-3.24-8.07-9.9-8.07h-7.31v16.15h7.31Z"/>
    <path class="st4" d="M1037.78,328.57l2.77-2.53c2.06,2.53,5.65,4.89,10.19,4.89,5.72,0,9.55-2.83,9.55-7.19,0-4.66-2.89-6.84-7.66-8.96l-4.42-1.89c-6.37-2.71-8.9-6.36-8.9-11.43,0-5.95,5.89-9.84,11.9-9.84,4.95,0,9.08,2.24,11.67,5.3l-2.71,2.53c-2.18-2.59-4.83-4.36-9.14-4.36s-8.07,2.48-8.07,6.6c0,3.48,1.71,5.84,6.49,7.84l4.42,1.88c5.66,2.42,10.14,5.78,10.14,11.79,0,6.43-4.89,11.2-13.26,11.2-5.78,0-10.61-3-12.96-5.83"/>
  </g>
  <g>
    <path class="st2" d="M157.66,333.92H12.99c-2.13,0-3.85-1.73-3.85-3.85v-67.04c0-2.13,1.73-3.85,3.85-3.85h144.67c2.13,0,3.85,1.73,3.85,3.85v67.04c0,2.13-1.73,3.85-3.85,3.85"/>
    <path class="st2" d="M85.33,17.6h0C43.25,17.6,9.14,51.71,9.14,93.79v123.36c0,42.08,34.11,76.18,76.19,76.18s76.19-34.11,76.19-76.18v-123.36c0-42.08-34.11-76.19-76.19-76.19"/>
    <path class="st1" d="M97.51,179.53c-1.12-.07-3.12-.22-4.23-.38-20.77-2.99-40.19-10.45-59.52-18.14-8.05-3.21-15.71-6.46-24.62-6.06v58.18h90.63l-2.26-33.6Z"/>
    <path class="st3" d="M57.3,88.73c.02-15.43,12.43-27.81,27.85-27.79,15.31.02,27.57,12.56,27.53,28.14-.04,15-12.59,27.45-27.64,27.41-15.43-.03-27.77-12.38-27.75-27.77"/>
    <path class="st4" d="M161.52,228.77H9.15v-17.64c15.92-3.59,32.69-2.83,48.8-3.91,7.69-.52,13.19-6.07,18.83-10.73,6.91-5.71,13.32-12.02,20.81-17.04,9.84-6.87,20.6-10.77,32.78-10.84,9.98-.06,18.74-4.08,27.02-9.25,1.13-.71,2.99-1.38,4.13-2.07"/>
    <path class="st0" d="M17.96,333.67l143.55-66.36v-39.73H9.14v103.68c0,1.47,1.19,2.65,2.65,2.65h5.05c.38,0,.76-.08,1.11-.24"/>
  </g>
</svg>